<?xml version="1.0" encoding="UTF-8" standalone="no"?>
<svg
   width="48"
   height="48"
   version="1.1"
   id="svg1"
   sodipodi:docname="folder.svg"
   xml:space="preserve"
   inkscape:version="1.3 (0e150ed6c4, 2023-07-21)"
   xmlns:inkscape="http://www.inkscape.org/namespaces/inkscape"
   xmlns:sodipodi="http://sodipodi.sourceforge.net/DTD/sodipodi-0.dtd"
   xmlns:xlink="http://www.w3.org/1999/xlink"
   xmlns="http://www.w3.org/2000/svg"
   xmlns:svg="http://www.w3.org/2000/svg"><sodipodi:namedview
     id="namedview1"
     pagecolor="#ffffff"
     bordercolor="#666666"
     borderopacity="1.0"
     inkscape:showpageshadow="2"
     inkscape:pageopacity="0.0"
     inkscape:pagecheckerboard="0"
     inkscape:deskcolor="#d1d1d1"
     inkscape:zoom="8.5"
     inkscape:cx="24"
     inkscape:cy="23.941176"
     inkscape:window-width="1600"
     inkscape:window-height="831"
     inkscape:window-x="0"
     inkscape:window-y="32"
     inkscape:window-maximized="1"
     inkscape:current-layer="svg1" /><defs
     id="acyl-settings"><linearGradient
       x1="2.2954527"
       y1="11.844069"
       x2="2.2954527"
       y2="48.597696"
       id="acyl-gradient"
       gradientTransform="scale(1.1844069,0.84430443)"
       gradientUnits="userSpaceOnUse"><stop
         offset="100%"
         style="stop-color:#75AC31;stop-opacity:1.000000"
         id="stop1" /></linearGradient><g
       id="acyl-filter" /><g
       id="acyl-drawing"><path
         d="M 6.625 10 C 4.4437601 10 2.71875 11.855151 2.71875 14.0625 L 2.71875 26.90625 C 2.71875 26.980768 2.7461169 27.051342 2.75 27.125 C 2.7430289 27.304541 2.71875 27.475029 2.71875 27.65625 L 2.71875 40.53125 C 2.7187776 40.807381 2.9426191 41.031222 3.21875 41.03125 L 32.78125 41.03125 C 40.123609 41.03125 46.249999 35.002324 46.25 27.65625 L 46.25 14.8125 C 46.249972 14.536369 46.026131 14.312528 45.75 14.3125 L 43.375 14.3125 L 43.375 14.0625 C 43.375 11.855151 41.64999 10 39.46875 10 L 6.625 10 z M 6.625 12 L 39.46875 12 C 40.527421 12 41.375 12.881546 41.375 14.0625 L 41.375 14.3125 L 15.8125 14.3125 C 11.068956 14.3125 7.0124466 16.838243 4.71875 20.59375 L 4.71875 14.0625 C 4.71875 12.881546 5.5663292 12 6.625 12 z "
         id="path-main" /></g><linearGradient
       x1="2.2954527"
       y1="11.844069"
       x2="2.2954527"
       y2="48.597696"
       id="acyl-gradient-6"
       gradientTransform="scale(1.1844069,0.84430443)"
       gradientUnits="userSpaceOnUse"><stop
         offset="100%"
         style="stop-color:#75AC31;stop-opacity:1.000000"
         id="stop1-2" /></linearGradient><linearGradient
       x1="2.2954527"
       y1="11.844069"
       x2="2.2954527"
       y2="48.597696"
       id="acyl-gradient-62"
       gradientTransform="scale(1.1844069,0.84430443)"
       gradientUnits="userSpaceOnUse"><stop
         offset="100%"
         style="stop-color:#75AC31;stop-opacity:1.000000"
         id="stop1-6" /></linearGradient><linearGradient
       x1="1.9999943"
       y1="2.0000355"
       x2="1.9999943"
       y2="46.000016"
       id="acyl-gradient-2"
       gradientUnits="userSpaceOnUse"><stop
         offset="100%"
         style="stop-color:#75AC31;stop-opacity:1.000000"
         id="stop1-3" /></linearGradient><g
       id="acyl-filter-7" /><g
       id="acyl-drawing-5"><path
         id="path-main-9"
         d="m 23.999995,2.0000346 c -6.406208,0 -12.180271,2.7390861 -16.2010868,7.1141304 C 6.1283143,7.3540981 4.5014335,5.1085389 4.1521691,3.9429694 4.0175291,3.4978998 3.5562848,3.2092694 3.4347778,3.4945998 c -0.2148348,0.5046609 0.04907,1.3715087 0.6576087,2.3016304 1.663047,2.5418609 2.584847,3.9057174 2.75,3.9755435 0.053565,0.022765 0.1388104,0.086756 0.2092391,0.2092392 C 3.89717,13.789796 1.9999952,18.671788 1.9999952,23.999996 c 0,12.144479 9.8555218,22 21.9999998,22 5.72309,0 10.940562,-2.184313 14.855978,-5.768974 0.134507,0.120713 0.2552,0.270505 0.388587,0.38854 1.0505,0.929547 2.244096,2.075747 2.660327,2.540808 0.779134,0.870531 2.298961,1.689792 2.660326,1.434783 0.256673,-0.181165 -0.337815,-1.441765 -0.866848,-1.823418 -0.354573,-0.255678 -2.24907,-1.922034 -3.945652,-3.437452 3.860646,-3.963348 6.247282,-9.368269 6.247282,-15.334287 0,-12.144382 -9.855522,-21.9999614 -22,-21.9999614 z m 0,0.9565217 c 11.632605,0 21.043478,9.4108927 21.043478,21.0434397 0,5.723635 -2.274838,10.913626 -5.97826,14.706522 -0.957976,-0.861826 -1.812485,-1.618722 -2.002718,-1.823322 -0.26048,-0.280261 -0.573942,-0.549043 -0.6875,-0.597826 -0.113548,-0.04878 -0.309454,-0.223348 -0.448369,-0.388635 -0.244793,-0.291165 -0.831046,-0.899321 -1.464674,-1.524408 -1.103692,-1.088809 -3.780375,-4.251261 -3.88587,-4.603261 -0.183614,-0.612748 0.737478,-2.678452 1.315218,-2.959287 1.40205,-0.681617 1.92302,-1.66607 2.570652,-4.842391 0.0506,-0.247931 -0.169333,-0.735757 -0.478261,-1.13587 -0.301993,-0.391122 -0.686391,-1.198904 -0.866848,-1.793478 -0.332401,-1.095026 -0.811063,-1.59127 -2.75,-2.720061 -0.31459,-0.183174 -0.641252,-0.561765 -0.717391,-0.866896 -0.162169,-0.649574 -1.856179,-1.498774 -2.570652,-1.285278 -0.273747,0.0813 -0.837311,-0.05835 -1.614131,-0.418478 -0.647116,-0.299583 -1.39897,-0.532113 -1.673913,-0.5082 -0.386597,0.03444 -0.712216,-0.1012 -1.434783,-0.62767 -1.08547,-0.790948 -1.735828,-1.028069 -2.30163,-0.836956 -0.222219,0.07461 -0.723073,0.01339 -1.105978,-0.149505 -1.305461,-0.554208 -4.650379,-0.63733 -6.336957,-0.149408 -1.494345,0.432156 -2.006763,0.256921 -3.7065215,-1.255445 C 8.7564248,10.088048 8.6075326,9.9465876 8.4565169,9.801665 12.304824,5.582572 17.835633,2.9565563 23.999995,2.9565563 z M 7.5597778,10.877762 c 0.029174,0.02487 0.063322,0.07843 0.089626,0.08991 1.3255287,0.562721 2.7396311,2.952591 2.3315217,3.915808 -0.4561269,1.076661 -0.4356382,2.059105 0.029843,3.347826 0.252857,0.699983 0.477257,1.568696 0.508152,1.942887 0.09556,1.157487 0.663214,2.8094 1.016305,2.959287 0.228627,0.09699 0.378734,0.610166 0.448369,1.643974 0.06944,1.029983 0.219551,1.700792 0.508152,2.032609 0.234329,0.269356 0.640784,1.02893 0.89674,1.703852 0.275066,0.725235 0.672291,1.39107 0.986413,1.614131 0.292313,0.207565 0.544739,0.493947 0.538043,0.657608 -0.02114,0.594287 0.728803,1.414409 1.883152,2.032609 2.451068,1.311965 3.203726,1.575678 3.826087,1.375 0.322166,-0.104261 0.697438,-0.149026 0.836957,-0.08991 0.825057,0.350087 3.386775,-0.751061 5.649456,-2.451087 0.92049,-0.691661 1.99012,-0.594765 2.989131,0.269069 1.706855,1.475818 3.131776,2.773627 4.035326,3.736366 1.166956,1.243478 2.582599,2.637417 4.005435,3.945652 -3.735543,3.380252 -8.700589,5.440217 -14.138587,5.440217 -11.632606,0 -21.0434787,-9.410835 -21.0434787,-21.043478 0,-4.972287 1.7244843,-9.520452 4.6032609,-13.122235 z" /></g><linearGradient
       inkscape:collect="always"
       xlink:href="#acyl-gradient"
       id="linearGradient2"
       gradientUnits="userSpaceOnUse"
       gradientTransform="scale(1.1844069,0.84430443)"
       x1="2.2954527"
       y1="11.844069"
       x2="2.2954527"
       y2="48.597696" /><linearGradient
       inkscape:collect="always"
       xlink:href="#acyl-gradient"
       id="linearGradient3"
       gradientUnits="userSpaceOnUse"
       gradientTransform="scale(1.1844069,0.84430443)"
       x1="2.2954527"
       y1="11.844069"
       x2="2.2954527"
       y2="48.597696" /></defs><g
     id="visible1"
     style="display:inline;fill:url(#linearGradient3)"
     inkscape:label="acyl-visual"><path
       id="path2"
       style="display:inline;fill:url(#linearGradient2)"
       d="m 6.625,10 c -2.1812377,0 -3.90625,1.855153 -3.90625,4.0625 v 12.84375 c 0,0.07452 0.027367,0.145092 0.03125,0.21875 -0.00697,0.179541 -0.03125,0.350029 -0.03125,0.53125 v 12.875 c 2.76e-5,0.276131 0.2238694,0.499972 0.5,0.5 h 29.5625 c 7.342352,0 13.468749,-6.028933 13.46875,-13.375 V 14.8125 c -2.8e-5,-0.276131 -0.223869,-0.499972 -0.5,-0.5 h -2.375 v -0.25 C 43.375,11.855153 41.649988,10 39.46875,10 Z m 0,2 h 32.84375 c 1.05867,0 1.90625,0.881547 1.90625,2.0625 v 0.25 H 15.8125 c -4.743539,0 -8.8000557,2.525747 -11.09375,6.28125 V 14.0625 C 4.71875,12.881547 5.5663303,12 6.625,12 Z m 17.859375,4.515625 c 6.072233,0 11,4.927815 11,11 0,2.983006 -1.192726,5.686297 -3.123047,7.667969 0.84829,0.757708 1.79537,1.59091 1.972656,1.71875 0.264516,0.190826 0.56193,0.819576 0.433594,0.910156 -0.180683,0.127505 -0.940511,-0.281532 -1.330078,-0.716797 -0.208116,-0.232531 -0.804829,-0.804759 -1.330078,-1.269531 -0.06669,-0.05902 -0.128063,-0.134953 -0.195313,-0.195313 -1.957707,1.792329 -4.566193,2.884766 -7.427734,2.884766 -6.072233,0 -11,-4.927767 -11,-11 0,-2.664101 0.948164,-5.105376 2.525391,-7.009766 -0.03522,-0.06124 -0.07674,-0.09214 -0.103516,-0.103515 -0.08258,-0.03491 -0.543477,-0.717352 -1.375,-1.988282 -0.304264,-0.46506 -0.437495,-0.89806 -0.330078,-1.15039 0.06075,-0.142665 0.292055,1.21e-4 0.359375,0.222656 0.174632,0.582784 0.988922,1.705906 1.824219,2.585938 2.010406,-2.18752 4.896507,-3.556641 8.099609,-3.556641 z m 0,0.478516 c -3.082178,0 -5.847332,1.312331 -7.771484,3.421875 0.07551,0.07246 0.150379,0.142934 0.224609,0.208984 0.849878,0.756182 1.106343,0.844984 1.853516,0.628906 0.843288,-0.243965 2.515239,-0.202885 3.167968,0.07422 0.191453,0.08145 0.441626,0.111519 0.552735,0.07422 0.2829,-0.09556 0.607656,0.02445 1.15039,0.419922 0.361284,0.263234 0.523498,0.32972 0.716797,0.3125 0.137471,-0.01196 0.514333,0.104114 0.837891,0.253906 0.388409,0.180059 0.669767,0.249634 0.806641,0.208984 0.357235,-0.106748 1.204066,0.317792 1.285156,0.642578 0.03807,0.152565 0.20208,0.342004 0.359375,0.433594 0.969468,0.564395 1.2088,0.813816 1.375,1.361328 0.09023,0.297287 0.282598,0.700924 0.433593,0.896485 0.154461,0.200056 0.263582,0.444394 0.238282,0.568359 -0.323816,1.588159 -0.584132,2.079113 -1.285156,2.419922 -0.28887,0.140417 -0.750014,1.174095 -0.658204,1.480469 0.05275,0.175999 1.391514,1.756376 1.94336,2.300781 0.316813,0.312543 0.610025,0.618089 0.732422,0.763672 0.06946,0.08264 0.167839,0.168969 0.224609,0.193359 0.05678,0.02439 0.213509,0.158697 0.34375,0.298828 0.09512,0.1023 0.522965,0.481197 1.001953,0.91211 1.851708,-1.896446 2.988281,-4.491702 2.988281,-7.353516 0,-5.816267 -4.705188,-10.521484 -10.521484,-10.521484 z m -8.220703,3.960937 c -1.439388,1.80089 -2.300781,4.074405 -2.300781,6.560547 0,5.816315 4.705187,10.521484 10.521484,10.521484 2.718996,0 5.20059,-1.030578 7.068359,-2.720703 -0.711416,-0.654116 -1.418475,-1.350918 -2.001953,-1.972656 -0.451773,-0.481369 -1.164151,-1.129279 -2.017578,-1.867188 -0.499504,-0.431916 -1.033896,-0.480596 -1.494141,-0.134765 -1.131339,0.850012 -2.411691,1.399653 -2.824218,1.224609 -0.06976,-0.02955 -0.258839,-0.0072 -0.419922,0.04492 -0.311181,0.100339 -0.686577,-0.03152 -1.91211,-0.6875 -0.577173,-0.3091 -0.951976,-0.718482 -0.941406,-1.015625 0.0033,-0.08183 -0.123374,-0.224343 -0.269531,-0.328125 -0.157061,-0.111531 -0.356607,-0.444023 -0.494141,-0.80664 -0.127976,-0.337461 -0.3301,-0.718838 -0.447265,-0.853516 -0.144301,-0.165908 -0.219187,-0.500634 -0.253907,-1.015625 -0.03482,-0.516904 -0.110296,-0.773766 -0.224609,-0.822266 -0.176545,-0.07494 -0.460032,-0.899772 -0.507812,-1.478515 -0.01545,-0.187095 -0.127478,-0.622665 -0.253907,-0.972657 C 17.257496,23.9865 17.246546,23.495362 17.474609,22.957031 17.678663,22.475424 16.971357,21.28136 16.308594,21 c -0.01315,-0.0057 -0.03033,-0.03249 -0.04492,-0.04492 z" /></g></svg>
