<?xml version="1.0" encoding="UTF-8" standalone="no"?>
<svg
   width="48"
   height="48"
   version="1.1"
   id="svg11"
   sodipodi:docname="cherrytreetemp.svg"
   inkscape:version="1.1.2 (0a00cf5339, 2022-02-04)"
   xmlns:inkscape="http://www.inkscape.org/namespaces/inkscape"
   xmlns:sodipodi="http://sodipodi.sourceforge.net/DTD/sodipodi-0.dtd"
   xmlns="http://www.w3.org/2000/svg"
   xmlns:svg="http://www.w3.org/2000/svg">
  <sodipodi:namedview
     id="namedview13"
     pagecolor="#ffffff"
     bordercolor="#666666"
     borderopacity="1.0"
     inkscape:pageshadow="2"
     inkscape:pageopacity="0.0"
     inkscape:pagecheckerboard="0"
     showgrid="false"
     showguides="true"
     inkscape:guide-bbox="true"
     inkscape:zoom="10.149929"
     inkscape:cx="18.867127"
     inkscape:cy="24.630715"
     inkscape:window-width="1599"
     inkscape:window-height="831"
     inkscape:window-x="0"
     inkscape:window-y="0"
     inkscape:window-maximized="1"
     inkscape:current-layer="svg11" />
  <defs
     id="acyl-settings">
    <linearGradient
       x1="0%"
       y1="0%"
       x2="0%"
       y2="100%"
       id="acyl-gradient">
      <stop
         offset="100%"
         style="stop-color:#75AC31;stop-opacity:1.000000"
         id="stop2" />
    </linearGradient>
    <g
       id="acyl-filter" />
    <g
       id="acyl-drawing">
      <path
         d="M 10.339462,2 37.660537,2 C 42.271987,2 46,5.7923807 46,10.483453 l 0,27.033094 C 46,42.207619 42.271987,46 37.660537,46 L 10.339462,46 C 5.7280122,46 2,42.207619 2,37.516547 L 2,10.483453 C 2,5.7923807 5.7280122,2 10.339462,2 z m 14.345121,6.7741007 c -0.108962,0.066146 -0.254558,0.1414888 -0.435644,0.2532374 -0.362172,0.2235175 -0.845235,0.5526554 -1.4314,0.9179858 -1.17233,0.7306611 -2.713565,1.6759451 -4.231966,2.6273381 -3.036803,1.902796 -6.036775,3.798561 -6.036775,3.798561 l -0.217822,0.126619 0,0.284892 0,14.434532 -6.5968883,8.831655 c -0.036084,0.404117 -0.5450571,1.108893 0.6534653,0.728057 l 12.19802,-5.697841 13.224894,-0.158274 c 2.608192,-3.67651 4.890291,-7.649826 7.281471,-11.490647 l -0.03112,-0.06331 0,-14.1496408 0,-0.5064749 -0.497878,0 -10.082037,0 c -0.327426,0.3376496 -0.791556,0.6753001 0,1.0129499 l 9.584158,0 0,13.2633088 -10.673267,7.438849 -9.584158,0 0,-11.332374 7.717114,-9.6863308 C 25.71825,8.8480531 25.365798,8.705443 24.902402,8.647482 c -0.08137,0.04143 -0.10886,0.060473 -0.217821,0.1266187 z m 3.82744,11.8705033 2.364922,-2.152518 2.738331,5.571223 1.867044,-1.012949 -2.489392,-5.064748 3.111739,-0.506475 -7.592644,-7.343885 z m -5.570015,-9.623021 c -1.123064,0.700546 -2.442426,1.537941 -3.827439,2.405755 -2.910554,1.823695 -5.555409,3.494261 -5.787836,3.640288 l 0,13.358273 3.485148,0 0,-11.490647 0,-0.158273 0.09335,-0.158274 z m 13.75389,14.117985 -8.868458,6.204317 -0.12447,0.09496 -0.155587,0 -9.739745,0 0,1.614388 12.758133,-0.03165 0.653465,0 z m -19.884017,6.299281 0,1.614388 -8.7128711,5.476259 5.1032531,-6.83741 0.12447,-0.126618 0,-0.126619 z"
         id="path-main" />
    </g>
    <linearGradient
       x1="6.4290357"
       y1="1.8136468"
       x2="6.4290357"
       y2="41.713879"
       id="acyl-gradient-3"
       gradientTransform="scale(0.90682341,1.1027505)"
       gradientUnits="userSpaceOnUse">
      <stop
         offset="100%"
         style="stop-color:#75AC31;stop-opacity:1.000000"
         id="stop2-6" />
    </linearGradient>
  </defs>
  <path
     style="fill:#75ac31;stroke:none;stroke-width:0.08;fill-opacity:1"
     d="m 19.568446,9.1769851 c 0.13352,0.9913599 0.41608,1.9612799 0.5372,2.9599999 0.14312,1.1812 0.15176,2.41032 0.09968,3.6 -0.15608,3.56336 -1.01424,7.18528 -1.8668,10.64 -0.29632,1.20064 -0.67952,2.38944 -0.93008,3.6 -0.70216,-0.4888 -1.29112,-1.04112 -2.16,-1.22648 -0.52104,-0.1112 -1.07816,-0.05728 -1.599998,0.01608 -2.56048,0.35984 -4.4678398,2.2844 -5.1658398,4.7304 -1.3084,4.58528 0.61328,9.98768 5.0858398,12.0888 0.905918,0.4256 1.815678,0.61312 2.799998,0.734 1.0264,0.126 2.14032,-0.0432 3.12,-0.36944 1.61448,-0.53768 3.11688,-1.53424 4.20288,-2.85336 1.39784,-1.69784 2.44144,-3.9936 2.35392,-6.24 -0.10344,-2.65352 -1.61272,-6.1412 -4.6368,-6.46608 -0.87376,-0.09392 -1.5864,0.1108 -2.4,0.38608 -0.4328,-3.4244 1.00312,-6.87856 1.49824,-10.24 0.38608,-2.6208 0.66104,-5.274 0.40816,-7.92 -0.1604,-1.67888 -0.6264,-3.3099199 -0.9464,-4.9599999 0.89648,0.974 1.69656,2.04504 2.5724,3.0399999 3.4152,3.87976 6.63792,7.97816 8.0788,13.04 0.38968,1.36896 0.71184,2.74464 0.8812,4.16 0.048,0.40096 0.23768,1.21544 -0.01464,1.57144 -0.15352,0.21664 -0.5028,0.11776 -0.71776,0.07232 -0.67256,-0.14216 -1.17584,-0.65136 -1.84,-0.83104 -1.37656,-0.37248 -2.79952,-0.0082 -4,0.70848 -0.48704,0.2908 -1.03592,0.6768 -1.28,1.1988 2.58152,1.75608 3.62952,4.89464 3.05568,7.92 -0.17088,0.90088 -0.43336,1.80032 -0.80464,2.64 -0.19368,0.43808 -0.64,0.94752 -0.63392,1.44 0.0048,0.36408 0.28888,0.63256 0.5432,0.85688 0.61496,0.5424 1.31776,0.98496 2.07968,1.2868 3.19664,1.2664 6.78328,0.1996 9.19688,-2.1508 1.26336,-1.2304 2.16696,-2.87296 2.66544,-4.55288 0.85832,-2.8924 0.2632,-7.19224 -2.90232,-8.46336 -0.71952,-0.28896 -1.4792,-0.36208 -2.24,-0.23384 -0.49336,0.0832 -0.93376,0.2864 -1.44,0.2972 -0.14048,-0.8264 -0.40208,-1.65848 -0.588,-2.48 -0.98896,-4.3708 -2.48072,-8.44136 -5.16272,-12.08 -2.1152,-2.86968 -4.9768,-5.1268799 -6.96928,-8.0799999 0.6888,0.352 1.63152,0.44424 2.2388,0.91352 0.84184,0.65056 1.26552,1.83352 2.00432,2.6064799 1.9148,2.00328 4.4572,3.0052 7.19688,3.1928 1.76352,0.1208 3.55336,-0.0788 5.28,-0.4248 0.40296,-0.08072 0.80208,-0.17504 1.19992,-0.27792 0.16016,-0.04144 0.37272,-0.0716 0.47776,-0.2152 0.14816,-0.20248 0.04424,-0.53088 0.01272,-0.75488 -0.09464,-0.67408 -0.28736,-1.31032 -0.59024,-1.92 -1.22416,-2.4644799 -3.67832,-4.0731039 -6.30016,-4.7283919 -2.0088,-0.502056 -4.34568,-0.507808 -6.32,0.142032 -0.53176,0.175024 -1.05384,0.380928 -1.52,0.695128 -0.65688,0.442712 -0.97456,0.985152 -1.84,0.76772 -0.7928,-0.199176 -1.21104,-0.85576 -1.59912,-1.516488 -0.46768,-0.796144 -0.92696,-1.597296 -1.38336,-2.4 -0.35072,-0.616848 -0.71472,-1.49696 -1.57752,-1.287408 -0.75496,0.18336 -1.78792,1.588976 -1.47168,2.403896 0.23384,0.602504 0.98352,0.214088 1.33576,0.65536 0.30176,0.378064 0.41208,0.976568 0.56256,1.428152 0.42,1.25984 0.82624,2.52024 0.39344,3.8399999 -0.30104,0.918 -0.99312,1.2328 -1.78008,1.68 -0.85472,0.48568 -1.69864,0.99032 -2.56,1.46448 -2.467838,1.35848 -4.5680778,3.02808 -5.5948778,5.73552 -0.73128,1.92824 -0.9732,4.42208 -0.0244,6.32 0.30768,0.61536 0.83888,1.50272 1.5392798,1.72984 0.2216,0.07184 0.43952,-0.04544 0.64,-0.13 0.482,-0.2032 0.96144,-0.4172 1.44,-0.62864 2.121918,-0.93752 4.097278,-1.9136 5.485758,-3.8512 1.59816,-2.23032 2.13368,-5.15232 1.77168,-7.84 -0.06976,-0.51776 -0.17776,-1.03624 -0.37888,-1.52 -0.156,-0.37528 -0.4124,-0.70776 -0.46376,-1.12 -0.06832,-0.54896 0.14616,-1.08104 0.294,-1.6 0.13336,-0.4686399 0.25704,-0.8904799 0.6512,-1.1999999 M 13.648448,30.483305 c 0.906718,-0.078 1.587838,0.94632 0.983758,1.71656 -0.24,0.30608 -0.63336,0.35984 -0.983758,0.45616 -0.4356,0.11984 -0.91096,0.3084 -1.28,0.57192 -0.40088,0.28632 -0.74016,0.76752 -1.28,0.7876 -0.98688,0.0368 -0.9248,-1.15112 -0.55136,-1.71856 0.62696,-0.95264 1.97472,-1.71592 3.11136,-1.81368 z"
     id="path2" />
</svg>
