<?xml version="1.0" encoding="UTF-8" standalone="no"?>
<svg
   width="48"
   height="48"
   version="1.1"
   id="svg11"
   sodipodi:docname="discord-temp.svg"
   inkscape:version="1.1.2 (0a00cf5339, 2022-02-04)"
   xmlns:inkscape="http://www.inkscape.org/namespaces/inkscape"
   xmlns:sodipodi="http://sodipodi.sourceforge.net/DTD/sodipodi-0.dtd"
   xmlns="http://www.w3.org/2000/svg"
   xmlns:svg="http://www.w3.org/2000/svg">
  <sodipodi:namedview
     id="namedview13"
     pagecolor="#ffffff"
     bordercolor="#666666"
     borderopacity="1.0"
     inkscape:pageshadow="2"
     inkscape:pageopacity="0.0"
     inkscape:pagecheckerboard="0"
     showgrid="false"
     showguides="true"
     inkscape:guide-bbox="true"
     inkscape:zoom="14.354167"
     inkscape:cx="23.791001"
     inkscape:cy="23.059506"
     inkscape:window-width="1599"
     inkscape:window-height="831"
     inkscape:window-x="0"
     inkscape:window-y="0"
     inkscape:window-maximized="1"
     inkscape:current-layer="svg11" />
  <defs
     id="acyl-settings">
    <linearGradient
       x1="0%"
       y1="0%"
       x2="0%"
       y2="100%"
       id="acyl-gradient">
      <stop
         offset="100%"
         style="stop-color:#75AC31;stop-opacity:1.000000"
         id="stop2" />
    </linearGradient>
    <g
       id="acyl-filter" />
    <g
       id="acyl-drawing">
      <path
         d="M 10.339462,2 37.660537,2 C 42.271987,2 46,5.7923807 46,10.483453 l 0,27.033094 C 46,42.207619 42.271987,46 37.660537,46 L 10.339462,46 C 5.7280122,46 2,42.207619 2,37.516547 L 2,10.483453 C 2,5.7923807 5.7280122,2 10.339462,2 z m 14.345121,6.7741007 c -0.108962,0.066146 -0.254558,0.1414888 -0.435644,0.2532374 -0.362172,0.2235175 -0.845235,0.5526554 -1.4314,0.9179858 -1.17233,0.7306611 -2.713565,1.6759451 -4.231966,2.6273381 -3.036803,1.902796 -6.036775,3.798561 -6.036775,3.798561 l -0.217822,0.126619 0,0.284892 0,14.434532 -6.5968883,8.831655 c -0.036084,0.404117 -0.5450571,1.108893 0.6534653,0.728057 l 12.19802,-5.697841 13.224894,-0.158274 c 2.608192,-3.67651 4.890291,-7.649826 7.281471,-11.490647 l -0.03112,-0.06331 0,-14.1496408 0,-0.5064749 -0.497878,0 -10.082037,0 c -0.327426,0.3376496 -0.791556,0.6753001 0,1.0129499 l 9.584158,0 0,13.2633088 -10.673267,7.438849 -9.584158,0 0,-11.332374 7.717114,-9.6863308 C 25.71825,8.8480531 25.365798,8.705443 24.902402,8.647482 c -0.08137,0.04143 -0.10886,0.060473 -0.217821,0.1266187 z m 3.82744,11.8705033 2.364922,-2.152518 2.738331,5.571223 1.867044,-1.012949 -2.489392,-5.064748 3.111739,-0.506475 -7.592644,-7.343885 z m -5.570015,-9.623021 c -1.123064,0.700546 -2.442426,1.537941 -3.827439,2.405755 -2.910554,1.823695 -5.555409,3.494261 -5.787836,3.640288 l 0,13.358273 3.485148,0 0,-11.490647 0,-0.158273 0.09335,-0.158274 z m 13.75389,14.117985 -8.868458,6.204317 -0.12447,0.09496 -0.155587,0 -9.739745,0 0,1.614388 12.758133,-0.03165 0.653465,0 z m -19.884017,6.299281 0,1.614388 -8.7128711,5.476259 5.1032531,-6.83741 0.12447,-0.126618 0,-0.126619 z"
         id="path-main" />
    </g>
  </defs>
  <g
     id="g4"
     transform="matrix(0.171875,0,0,0.171875,2,6.5)"
     style="fill:#75ac31;fill-opacity:1">
    <path
       d="M 216.85634,16.596603 C 200.285,8.8432867 182.56614,3.2084988 164.04156,0 c -2.27504,4.1131811 -4.93294,9.6454991 -6.76546,14.046438 -19.69211,-2.961448 -39.20313,-2.961448 -58.533084,0 C 96.910842,9.6454991 94.192584,4.1131811 91.897189,0 73.352607,3.2084988 55.613395,8.8639912 39.042058,16.637661 5.6175229,67.146514 -3.4433191,116.40081 1.0871107,164.95572 23.25602,181.51091 44.740363,191.5677 65.862133,198.14858 c 5.215082,-7.17745 9.86623,-14.80725 13.873081,-22.84832 -7.631195,-2.89969 -14.940242,-6.47806 -21.846427,-10.6323 1.832174,-1.35737 3.624343,-2.77651 5.355803,-4.2367 42.12282,19.70193 87.89034,19.70193 129.50993,0 1.75182,1.46019 3.54363,2.87933 5.35581,4.2367 -6.92654,4.1746 -14.25559,7.75297 -21.88679,10.653 4.00685,8.02037 8.638,15.67087 13.87308,22.84797 21.14213,-6.58088 42.6464,-16.63731 64.81533,-33.21321 5.3158,-56.28752 -9.08086,-105.089477 -38.05561,-148.359117 z M 85.473875,135.09489 c -12.644847,0 -23.014653,-11.80473 -23.014653,-26.17999 0,-14.375253 10.148373,-26.200341 23.014653,-26.200341 12.866631,0 23.236085,11.804384 23.014655,26.200341 0.02,14.37526 -10.148024,26.17999 -23.014655,26.17999 z m 85.051365,0 c -12.64485,0 -23.01466,-11.80473 -23.01466,-26.17999 0,-14.375253 10.14803,-26.200341 23.01466,-26.200341 12.86628,0 23.23608,11.804384 23.01465,26.200341 0,14.37526 -10.14837,26.17999 -23.01465,26.17999 z"
       fill="#5865f2"
       fill-rule="nonzero"
       id="path2"
       style="fill:#75ac31;fill-opacity:1" />
  </g>
</svg>
