<?xml version="1.0" encoding="UTF-8" standalone="no"?>
<svg
   width="48"
   height="48"
   version="1.1"
   id="svg11"
   sodipodi:docname="emacs.svg"
   inkscape:version="1.1.2 (0a00cf5339, 2022-02-04)"
   xmlns:inkscape="http://www.inkscape.org/namespaces/inkscape"
   xmlns:sodipodi="http://sodipodi.sourceforge.net/DTD/sodipodi-0.dtd"
   xmlns="http://www.w3.org/2000/svg"
   xmlns:svg="http://www.w3.org/2000/svg">
  <sodipodi:namedview
     id="namedview13"
     pagecolor="#ffffff"
     bordercolor="#666666"
     borderopacity="1.0"
     inkscape:pageshadow="2"
     inkscape:pageopacity="0.0"
     inkscape:pagecheckerboard="0"
     showgrid="false"
     inkscape:zoom="14.354167"
     inkscape:cx="15.605225"
     inkscape:cy="24.034833"
     inkscape:window-width="1599"
     inkscape:window-height="831"
     inkscape:window-x="0"
     inkscape:window-y="0"
     inkscape:window-maximized="1"
     inkscape:current-layer="svg11" />
  <defs
     id="acyl-settings">
    <linearGradient
       x1="0%"
       y1="0%"
       x2="0%"
       y2="100%"
       id="acyl-gradient">
      <stop
         offset="100%"
         style="stop-color:#75AC31;stop-opacity:1.000000"
         id="stop2" />
    </linearGradient>
    <g
       id="acyl-filter" />
    <g
       id="acyl-drawing">
      <path
         id="path-main"
         d="M 24,2 C 11.855881,2 2,11.85588 2,24 2,36.144119 11.855881,46 24,46 36.144119,46 46,36.144119 46,24 46,11.85588 36.144119,1.9999991 24,2 z m 6.852481,5.1596753 c 6.075016,0.019784 6.862447,2.5933097 7.243038,4.3059957 0.477611,2.149255 -1.602984,3.819616 -3.752237,3.853734 -2.149254,0.03411 -2.185068,-1.158639 -8.871638,-1.226867 -6.68657,-0.06823 -1.773136,3.889554 -1.773136,3.889554 0,0 5.663543,4.332195 8.904473,6.856713 -4.093815,0.102346 -16.923234,-0.104051 -16.582088,4.023883 0.341156,4.127933 9.724523,4.298928 16.513439,6.755219 6.788906,2.45629 1.568865,3.51472 -3.411944,4.435823 -4.980809,0.921112 -15.794029,-1.570149 -15.794029,-1.570149 0,0 4.229849,0.0021 10.677609,-0.134329 6.44776,-0.136455 0.715137,-1.502774 -1.638808,-1.946266 C 20.013215,35.959484 7.6285717,31.62729 8.1403008,26.441789 c 0.51172,-5.185501 12.5897662,-5.014927 17.8776122,-3.820896 -3.036247,-1.637524 -8.3919,-5.459703 -9.961196,-8.802983 -1.569297,-3.343283 2.046055,-3.545841 3.922389,-3.477611 1.876334,0.06823 13.236676,2.284008 13.13433,0.44179 C 33.01109,8.939873 25.158208,8.077611 25.158208,8.077612 27.488054,7.7745673 29.303947,7.1546327 30.852481,7.1596753 z" />
    </g>
  </defs>
  <path
     id="rect2984"
     style="display:inline;fill:#75ac31;fill-opacity:1;fill-rule:evenodd;stroke:none;stroke-width:0.0957164"
     d="M 9.1386719 2 C 5.1835909 2 2 5.1835904 2 9.1386719 L 2 38.861328 C 2 42.81641 5.1835909 46 9.1386719 46 L 38.861328 46 C 42.81641 46 46 42.81641 46 38.861328 L 46 9.1386719 C 46 5.1835904 42.81641 2 38.861328 2 L 9.1386719 2 z M 24.814453 8.7910156 C 29.388399 8.8820426 34.381402 11.407388 37.130859 15.099609 C 37.987446 16.249913 38.907181 18.145126 39.277344 19.523438 C 39.545222 20.520893 39.575219 20.81981 39.582031 22.615234 C 39.587831 24.154722 39.541172 24.844019 39.376953 25.671875 L 39.166016 26.742188 L 39.419922 27.716797 C 39.763389 29.029704 40.567211 31.296321 41.449219 33.439453 C 42.597358 36.229241 42.735236 37.085408 42.111328 37.576172 C 41.528468 38.034651 40.380897 37.792929 39.142578 36.951172 C 38.347218 36.410519 36.988901 35.00483 36.390625 34.101562 C 36.149711 33.737837 35.915125 33.39396 35.869141 33.337891 C 35.823151 33.281821 35.32304 33.683661 34.757812 34.230469 C 32.390588 36.520542 30.115743 37.804237 27.220703 38.486328 C 26.350353 38.691389 24.033521 38.822122 22.966797 38.726562 C 21.215939 38.569715 19.439012 38.128477 17.955078 37.480469 C 16.32212 36.767386 14.234209 35.270732 12.955078 33.894531 C 12.581549 33.492652 12.209006 33.16549 12.126953 33.167969 C 12.044903 33.170469 11.770188 33.506518 11.515625 33.914062 C 10.614583 35.356603 9.0349175 36.837104 7.78125 37.416016 C 7.538273 37.528216 7.0820899 37.641258 6.7675781 37.667969 C 6.2598401 37.711089 6.1634537 37.68494 5.8984375 37.419922 C 5.622581 37.144064 5.6026324 37.068779 5.6542969 36.439453 C 5.7106003 35.753641 5.8629391 35.321303 7.1542969 32.162109 C 7.7901325 30.606594 8.4056332 28.770564 8.7734375 27.330078 C 8.9428854 26.666442 8.9403859 26.584384 8.71875 25.564453 C 7.7397691 21.05935 9.082896 16.752649 12.503906 13.433594 C 15.517038 10.510259 19.085096 9.0625559 23.90625 8.8066406 C 24.206661 8.7906936 24.509523 8.7849475 24.814453 8.7910156 z M 17.3125 15.792969 C 17.185668 15.778937 17.079247 15.799092 16.960938 15.849609 C 16.842628 15.900126 16.711766 15.980365 16.533203 16.087891 C 13.27431 18.050294 11.230646 21.431852 11.253906 24.824219 C 11.256534 25.207499 11.277857 25.590782 11.316406 25.970703 C 11.354955 26.350625 11.411694 26.727199 11.484375 27.101562 C 11.557056 27.475926 11.644975 27.848237 11.75 28.214844 C 11.855025 28.581451 11.97575 28.942177 12.111328 29.298828 C 12.246906 29.655479 12.398157 30.007066 12.5625 30.351562 C 12.726843 30.696059 12.904385 31.033138 13.095703 31.363281 C 13.287021 31.693424 13.492481 32.016488 13.708984 32.330078 C 13.925488 32.643668 14.152678 32.949302 14.392578 33.244141 C 14.632478 33.538979 14.884977 33.823768 15.146484 34.097656 C 15.407992 34.371545 15.679612 34.634027 15.960938 34.884766 C 16.242263 35.135505 16.532677 35.374219 16.832031 35.599609 C 17.131385 35.825 17.440266 36.036532 17.755859 36.234375 C 18.071453 36.432218 18.394566 36.617059 18.724609 36.785156 C 19.054653 36.953253 19.391671 37.104082 19.734375 37.240234 C 20.077079 37.376386 20.423768 37.497601 20.777344 37.599609 C 21.13092 37.701617 21.490858 37.785898 21.853516 37.851562 C 22.909463 38.042756 23.32903 38.050797 24.75 37.908203 C 25.131665 37.869904 25.506971 37.816496 25.873047 37.75 C 26.239123 37.683504 26.596442 37.602665 26.947266 37.507812 C 27.298089 37.41296 27.640655 37.305011 27.976562 37.181641 C 28.31247 37.05827 28.641563 36.919627 28.962891 36.767578 C 29.284218 36.615529 29.599165 36.45042 29.90625 36.269531 C 30.213335 36.088643 30.513463 35.893483 30.806641 35.683594 C 31.099819 35.473705 31.386408 35.248816 31.666016 35.009766 C 31.945623 34.770715 32.218001 34.516419 32.484375 34.248047 C 35.515762 31.193917 37.03811 26.815827 36.380859 23.046875 C 36.328051 22.744048 36.253378 22.438015 36.158203 22.132812 C 36.063028 21.82761 35.949092 21.522251 35.814453 21.21875 C 35.679815 20.915249 35.524714 20.614126 35.353516 20.316406 C 35.182317 20.018687 34.993917 19.72536 34.789062 19.4375 C 34.584208 19.14964 34.36256 18.867672 34.126953 18.59375 C 33.891346 18.319828 33.642362 18.052781 33.378906 17.796875 C 33.115451 17.540969 32.839182 17.29631 32.550781 17.0625 C 32.262381 16.82869 31.960833 16.606074 31.650391 16.398438 C 30.680838 15.749968 30.763573 15.75398 29.521484 16.322266 C 29.229556 16.45583 28.946308 16.597771 28.669922 16.753906 C 28.393536 16.910041 28.123776 17.079844 27.855469 17.263672 C 27.587161 17.447499 27.320429 17.646639 27.052734 17.863281 C 26.78504 18.079923 26.516733 18.313781 26.242188 18.568359 C 25.944271 18.844609 25.687852 19.069284 25.462891 19.25 C 25.237929 19.430716 25.043476 19.567232 24.867188 19.666016 C 24.514611 19.863584 24.235218 19.911826 23.931641 19.863281 C 23.770333 19.837487 23.624507 19.802375 23.482422 19.751953 C 23.340336 19.701532 23.201764 19.634764 23.054688 19.544922 C 22.907611 19.45508 22.752454 19.341322 22.576172 19.197266 C 22.39989 19.053209 22.20431 18.87908 21.974609 18.666016 C 21.690029 18.402047 21.410161 18.157782 21.132812 17.931641 C 20.855464 17.705499 20.57921 17.497443 20.302734 17.304688 C 20.026259 17.111932 19.748759 16.935296 19.466797 16.771484 C 19.184835 16.607672 18.899277 16.457669 18.605469 16.318359 C 17.905206 15.986326 17.566161 15.821029 17.3125 15.792969 z M 19.455078 22.845703 C 19.777774 22.854662 20.066362 23.015658 20.376953 23.339844 C 20.647168 23.621891 20.695312 23.760212 20.695312 24.267578 C 20.695312 24.705799 20.63755 24.929738 20.478516 25.105469 C 19.961019 25.677296 19.192426 25.808564 18.574219 25.431641 C 17.999832 25.081436 17.839377 24.369291 18.160156 23.601562 C 18.28058 23.313341 18.450526 23.1564 18.826172 22.990234 C 18.940548 22.939639 19.050152 22.9032 19.154297 22.878906 C 19.258442 22.854613 19.35827 22.843003 19.455078 22.845703 z M 28.679688 22.849609 C 29.030086 22.866868 29.37286 23.026266 29.636719 23.339844 C 30.561153 24.438473 29.483397 26.078628 28.117188 25.652344 C 27.355488 25.414679 26.911833 24.545238 27.203125 23.861328 C 27.492474 23.181981 28.09569 22.820839 28.679688 22.849609 z M 23.929688 28.320312 C 29.864306 28.320312 29.814874 28.314737 30.113281 29.035156 C 30.231081 29.319544 30.226219 29.448902 30.076172 29.841797 C 29.931031 30.221843 26.442907 34.78166 25.548828 35.759766 C 25.031082 36.326174 24.080911 36.609635 23.349609 36.416016 C 23.12075 36.355422 22.712753 36.099533 22.443359 35.847656 C 21.621749 35.079474 17.862919 30.249404 17.722656 29.78125 C 17.554368 29.219555 17.699718 28.833421 18.1875 28.546875 C 18.562423 28.32661 18.726157 28.320312 23.929688 28.320312 z " />
</svg>
