<?xml version="1.0" encoding="UTF-8" standalone="no"?>
<svg
   width="48"
   height="48"
   version="1.1"
   id="svg1"
   sodipodi:docname="pdfarranger.svg"
   inkscape:version="1.3 (0e150ed6c4, 2023-07-21)"
   xmlns:inkscape="http://www.inkscape.org/namespaces/inkscape"
   xmlns:sodipodi="http://sodipodi.sourceforge.net/DTD/sodipodi-0.dtd"
   xmlns:xlink="http://www.w3.org/1999/xlink"
   xmlns="http://www.w3.org/2000/svg"
   xmlns:svg="http://www.w3.org/2000/svg">
  <sodipodi:namedview
     id="namedview1"
     pagecolor="#ffffff"
     bordercolor="#666666"
     borderopacity="1.0"
     inkscape:showpageshadow="2"
     inkscape:pageopacity="0.0"
     inkscape:pagecheckerboard="0"
     inkscape:deskcolor="#d1d1d1"
     showguides="true"
     inkscape:zoom="8.5"
     inkscape:cx="24"
     inkscape:cy="23.941176"
     inkscape:window-width="1600"
     inkscape:window-height="831"
     inkscape:window-x="0"
     inkscape:window-y="32"
     inkscape:window-maximized="1"
     inkscape:current-layer="svg1" />
  <defs
     id="acyl-settings">
    <linearGradient
       x1="8.0456167"
       y1="1.7549929"
       x2="8.0456167"
       y2="40.364836"
       id="acyl-gradient"
       gradientTransform="scale(0.87749644,1.1396058)"
       gradientUnits="userSpaceOnUse">
      <stop
         offset="100%"
         style="stop-color:#75AC31;stop-opacity:1.000000"
         id="stop1" />
    </linearGradient>
    <g
       id="acyl-filter" />
    <g
       id="acyl-drawing">
      <path
         d="m 8.086,2 c 0,0 -1.026,0 -1.026,0.978 l 0,42.042 C 7.06,46 8.086,46 8.086,46 l 31.828,0 c 0,0 1.026,0 1.026,-0.978 l 0,-33.022 -8.47,0 c 0,0 -2.118,0 -2.118,-2 l 0,-8 -22.266,0 z m 24.386,0.734 0,7.266 7.63,0 -7.63,-7.266 z M 13.414,8 26.12,8 l 0,2 -12.706,0 0,-2 z m 0,6 12.706,0 0,2 -12.706,0 0,-2 z m 0,6 21.176,0 0,2 -21.176,0 0,-2 z m 0,6 21.176,0 0,2 -21.176,0 0,-2 z m 0,6 21.176,0 0,2 -21.176,0 0,-2 z m 0,6 21.176,0 0,2 -21.176,0 0,-2 z"
         id="path-main" />
    </g>
    <linearGradient
       x1="8.0456167"
       y1="1.7549929"
       x2="8.0456167"
       y2="40.364836"
       id="acyl-gradient-0"
       gradientTransform="scale(0.87749644,1.1396058)"
       gradientUnits="userSpaceOnUse">
      <stop
         offset="100%"
         style="stop-color:#75AC31;stop-opacity:1.000000"
         id="stop1-6" />
    </linearGradient>
  </defs>
  <g
     id="acyl-visual"
     transform="matrix(0.79,0,0,0.79,1.5826,0.42)">
    <use
       id="visible1"
       style="fill:url(#acyl-gradient)"
       xlink:href="#acyl-drawing" />
  </g>
  <g
     id="acyl-visual-6"
     transform="matrix(0.79,0,0,0.79,8.1886,9.84)">
    <use
       id="visible1-1"
       style="fill:url(#acyl-gradient-0)"
       xlink:href="#acyl-drawing" />
  </g>
</svg>
