<?xml version="1.0" encoding="UTF-8" standalone="no"?>
<svg
   width="48"
   height="48"
   version="1.1"
   id="svg11"
   sodipodi:docname="picom-temp.svg"
   inkscape:version="1.1.2 (0a00cf5339, 2022-02-04)"
   xmlns:inkscape="http://www.inkscape.org/namespaces/inkscape"
   xmlns:sodipodi="http://sodipodi.sourceforge.net/DTD/sodipodi-0.dtd"
   xmlns="http://www.w3.org/2000/svg"
   xmlns:svg="http://www.w3.org/2000/svg">
  <sodipodi:namedview
     id="namedview13"
     pagecolor="#ffffff"
     bordercolor="#666666"
     borderopacity="1.0"
     inkscape:pageshadow="2"
     inkscape:pageopacity="0.0"
     inkscape:pagecheckerboard="0"
     showgrid="false"
     showguides="true"
     inkscape:guide-bbox="true"
     inkscape:zoom="7.1770835"
     inkscape:cx="21.944847"
     inkscape:cy="25.915819"
     inkscape:window-width="1599"
     inkscape:window-height="831"
     inkscape:window-x="0"
     inkscape:window-y="0"
     inkscape:window-maximized="1"
     inkscape:current-layer="svg11" />
  <defs
     id="acyl-settings">
    <linearGradient
       x1="0%"
       y1="0%"
       x2="0%"
       y2="100%"
       id="acyl-gradient">
      <stop
         offset="100%"
         style="stop-color:#75AC31;stop-opacity:1.000000"
         id="stop2" />
    </linearGradient>
    <g
       id="acyl-filter" />
    <g
       id="acyl-drawing">
      <path
         d="M 10.339462,2 37.660537,2 C 42.271987,2 46,5.7923807 46,10.483453 l 0,27.033094 C 46,42.207619 42.271987,46 37.660537,46 L 10.339462,46 C 5.7280122,46 2,42.207619 2,37.516547 L 2,10.483453 C 2,5.7923807 5.7280122,2 10.339462,2 z m 14.345121,6.7741007 c -0.108962,0.066146 -0.254558,0.1414888 -0.435644,0.2532374 -0.362172,0.2235175 -0.845235,0.5526554 -1.4314,0.9179858 -1.17233,0.7306611 -2.713565,1.6759451 -4.231966,2.6273381 -3.036803,1.902796 -6.036775,3.798561 -6.036775,3.798561 l -0.217822,0.126619 0,0.284892 0,14.434532 -6.5968883,8.831655 c -0.036084,0.404117 -0.5450571,1.108893 0.6534653,0.728057 l 12.19802,-5.697841 13.224894,-0.158274 c 2.608192,-3.67651 4.890291,-7.649826 7.281471,-11.490647 l -0.03112,-0.06331 0,-14.1496408 0,-0.5064749 -0.497878,0 -10.082037,0 c -0.327426,0.3376496 -0.791556,0.6753001 0,1.0129499 l 9.584158,0 0,13.2633088 -10.673267,7.438849 -9.584158,0 0,-11.332374 7.717114,-9.6863308 C 25.71825,8.8480531 25.365798,8.705443 24.902402,8.647482 c -0.08137,0.04143 -0.10886,0.060473 -0.217821,0.1266187 z m 3.82744,11.8705033 2.364922,-2.152518 2.738331,5.571223 1.867044,-1.012949 -2.489392,-5.064748 3.111739,-0.506475 -7.592644,-7.343885 z m -5.570015,-9.623021 c -1.123064,0.700546 -2.442426,1.537941 -3.827439,2.405755 -2.910554,1.823695 -5.555409,3.494261 -5.787836,3.640288 l 0,13.358273 3.485148,0 0,-11.490647 0,-0.158273 0.09335,-0.158274 z m 13.75389,14.117985 -8.868458,6.204317 -0.12447,0.09496 -0.155587,0 -9.739745,0 0,1.614388 12.758133,-0.03165 0.653465,0 z m -19.884017,6.299281 0,1.614388 -8.7128711,5.476259 5.1032531,-6.83741 0.12447,-0.126618 0,-0.126619 z"
         id="path-main" />
    </g>
  </defs>
  <path
     id="path19"
     style="display:inline;fill:#75ac31;fill-opacity:1;stroke-width:0.0509843"
     d="m 22.5301,2 c -0.64037,0.0433 -1.27363,0.11472 -1.89819,0.2121 l -0.91315,4.57779 c -1.70035,0.44559 -3.30075,1.12782 -4.75942,2.0282 L 11.04933,6.20616 C 9.21234,7.55366 7.58949,9.17749 6.244,11.01596 l 2.6787,4.01597 C 8.10643,16.44979 7.45892,17.99158 7.06175,19.62306 L 2.26508,20.57034 C 2.09071,21.68128 2,22.81769 2,23.97451 c 0,1.16039 0.0913,2.30094 0.26668,3.41392 l 4.88997,0.9661 c 0.41807,1.56622 1.05735,3.04682 1.86394,4.4091 l -2.7756,4.17042 c 1.34805,1.84102 2.97394,3.46745 4.8145,4.81597 l 4.17518,-2.7822 c 1.36232,0.80657 2.84345,1.45768 4.4097,1.87575 l 0.96712,4.88976 C 21.725,45.90871 22.86507,46 24.02549,46 c 1.15685,0 2.2938,-0.0907 3.40375,-0.26458 l 0.9478,-4.79656 c 1.63151,-0.39716 3.17433,-1.0329 4.59223,-1.84915 l 4.01197,2.66898 c 1.84056,-1.34699 3.46704,-2.97131 4.81559,-4.8108 l -2.60282,-3.90544 c 0.90039,-1.45916 1.57138,-3.06 2.01699,-4.76031 l 4.57689,-0.91412 C 45.88579,26.74346 45.95666,26.11022 46,25.46987 v -2.99072 c -0.0433,-0.63679 -0.11374,-1.26641 -0.21061,-1.8874 l -4.48668,-0.8953 c -0.42215,-1.7671 -1.09915,-3.43018 -2.00872,-4.94592 l 2.50334,-3.74731 C 40.45081,9.16678 38.82799,7.54396 36.991,6.19849 L 33.24819,8.69471 C 31.73292,7.78465 30.06979,7.11933 28.30265,6.69718 L 27.40832,2.21061 C 26.78733,2.11371 26.15769,2.04334 25.52088,2 Z m -4.7878,8.57653 h 8.32488 c 3.05489,0 5.36124,0.69372 6.91911,2.08117 1.57005,1.37528 2.35507,3.39564 2.35507,6.061 0,2.6897 -0.78502,4.72216 -2.35507,6.09744 -1.55787,1.37528 -3.86422,2.06295 -6.91911,2.06295 H 21.43004 V 37.83264 H 17.7423 Z m 3.68774,3.03055 v 10.24146 h 4.63714 c 1.71609,0 3.04275,-0.44419 3.97991,-1.33265 0.93716,-0.88845 1.40567,-2.15416 1.40567,-3.79719 0,-1.63086 -0.46851,-2.89052 -1.40567,-3.77898 -0.93716,-0.88845 -2.26382,-1.33264 -3.97991,-1.33264 z" />
</svg>
