<?xml version="1.0" encoding="UTF-8" standalone="no"?>
<svg
   height="48"
   width="48"
   version="1.1"
   id="svg29"
   sodipodi:docname="timeshift.svg"
   inkscape:version="1.1.2 (0a00cf5339, 2022-02-04)"
   xmlns:inkscape="http://www.inkscape.org/namespaces/inkscape"
   xmlns:sodipodi="http://sodipodi.sourceforge.net/DTD/sodipodi-0.dtd"
   xmlns:xlink="http://www.w3.org/1999/xlink"
   xmlns="http://www.w3.org/2000/svg"
   xmlns:svg="http://www.w3.org/2000/svg">
  <defs
     id="defs33" />
  <sodipodi:namedview
     id="namedview31"
     pagecolor="#ffffff"
     bordercolor="#666666"
     borderopacity="1.0"
     inkscape:pageshadow="2"
     inkscape:pageopacity="0.0"
     inkscape:pagecheckerboard="0"
     showgrid="false"
     inkscape:zoom="14.354167"
     inkscape:cx="23.860668"
     inkscape:cy="24.034833"
     inkscape:window-width="1599"
     inkscape:window-height="831"
     inkscape:window-x="0"
     inkscape:window-y="0"
     inkscape:window-maximized="1"
     inkscape:current-layer="svg29" />
  <linearGradient
     id="a"
     gradientUnits="userSpaceOnUse"
     x1="26.48"
     x2="26.635258"
     xlink:href="#b"
     y1="15.52"
     y2="41.330563" />
  <linearGradient
     id="b">
    <stop
       offset="0"
       stop-color="#fff"
       id="stop3" />
    <stop
       offset="1"
       stop-color="#ececec"
       id="stop5" />
  </linearGradient>
  <linearGradient
     id="c"
     gradientUnits="userSpaceOnUse"
     x1="399.57144"
     x2="399.57144"
     y1="545.79797"
     y2="517.79797">
    <stop
       offset="0"
       stop-color="#3889e9"
       id="stop8" />
    <stop
       offset="1"
       stop-color="#5ea5fb"
       id="stop10" />
  </linearGradient>
  <linearGradient
     id="d"
     gradientUnits="userSpaceOnUse"
     x1="-321.182097"
     x2="-321.70724"
     y1="656.027547"
     y2="241.07721">
    <stop
       offset="0"
       stop-color="#d72525"
       id="stop13" />
    <stop
       offset="1"
       stop-color="#e25858"
       id="stop15" />
  </linearGradient>
  <linearGradient
     id="e"
     gradientUnits="userSpaceOnUse"
     x1="-321.64728"
     x2="-322.17639"
     xlink:href="#b"
     y1="240.22079"
     y2="657.81665" />
  <path
     id="path474"
     style="display:inline;fill:#75ac31;stroke-width:2.90159;fill-opacity:1"
     d="M 24 2 A 22 22 0 0 0 2 24 A 22 22 0 0 0 24 46 A 22 22 0 0 0 46 24 A 22 22 0 0 0 24 2 z M 36.955078 11.714844 L 37.230469 12.537109 C 36.9216 12.914615 36.200596 13.56726 34.896484 14.802734 L 32.939453 16.689453 L 32.494141 16.792969 C 31.670491 17.0332 30.744405 17.136719 29.714844 17.136719 C 28.719601 17.136719 27.586477 17.034037 26.248047 16.828125 L 25.527344 16.689453 C 24.360507 17.272871 23.501953 18.303311 23.501953 19.607422 C 23.501953 20.087884 23.674113 20.534607 24.085938 21.152344 C 24.532081 21.804399 25.012854 22.318657 26.419922 23.691406 C 27.895627 25.064155 28.546875 25.956482 28.546875 26.574219 C 28.546875 26.917406 28.307193 27.431647 27.929688 27.912109 C 27.483544 28.529846 26.521468 29.456767 25.320312 30.486328 L 24.806641 30.931641 C 24.806641 30.965959 25.801351 31.412672 26.625 31.755859 C 27.68888 32.202003 28.477688 32.476844 29.164062 32.648438 C 29.335656 32.682756 29.576175 32.683594 29.816406 32.683594 C 30.125275 32.683594 30.434713 32.681919 30.640625 32.613281 C 31.498593 32.37305 32.803589 31.756965 34.039062 31.001953 C 34.210656 30.898997 34.346541 30.794922 34.380859 30.794922 C 34.380859 30.794922 34.484934 30.965963 34.587891 31.171875 L 34.759766 31.550781 L 34.587891 31.755859 C 33.421054 32.81974 31.121067 34.570889 29.199219 35.875 C 28.718757 36.218187 28.58119 36.285156 28.306641 36.285156 C 28.169366 36.285156 28.0332 36.286272 27.792969 36.251953 C 26.523176 36.148997 25.423798 35.805234 23.261719 34.947266 C 21.477145 34.226573 20.58453 33.952566 19.726562 33.849609 C 19.554969 33.815291 19.247206 33.814453 18.972656 33.814453 C 18.492194 33.814453 18.0106 33.850447 17.804688 33.884766 C 17.015357 34.056359 15.849871 34.673841 14.580078 35.634766 L 14.201172 35.908203 L 14.132812 35.53125 C 14.064175 35.325338 14.03125 35.153459 14.03125 35.119141 C 16.090373 33.334567 18.080942 31.926884 20.037109 30.931641 L 20.550781 30.658203 L 23.640625 30.658203 L 23.880859 30.382812 C 24.361321 29.90235 24.669922 29.455906 24.669922 28.769531 C 24.669922 28.392025 24.463721 28.0491 24.017578 27.5 C 23.674391 27.053857 23.22878 26.608524 22.199219 25.613281 C 20.586239 24.103258 19.967068 23.245521 19.417969 22.181641 L 19.658203 21.734375 C 20.722083 19.846845 22.164364 18.097358 23.777344 16.724609 C 24.017575 16.484378 24.086216 16.416016 24.017578 16.416016 C 23.948941 16.381697 21.718171 15.968747 20.173828 15.728516 C 18.52653 15.419647 17.530955 15.214844 16.398438 15.214844 C 15.162964 15.214844 14.304399 15.488569 13.652344 16.140625 C 13.343475 16.449493 13.138672 16.690857 13.138672 17.308594 C 13.138672 18.20088 13.48215 18.611057 14.03125 19.160156 C 14.408756 19.571981 14.682485 19.744703 15.197266 20.087891 C 15.471815 20.259484 15.506697 20.293528 15.541016 20.396484 C 15.541016 20.465122 15.5399 20.534041 15.574219 20.568359 C 15.574219 20.636997 12.829519 22.901228 12.726562 22.935547 C 12.657925 22.935547 11.764784 22.077562 11.490234 21.734375 C 11.07841 21.116638 10.769531 20.567509 10.769531 19.572266 C 10.769531 19.297716 10.770369 19.024272 10.804688 18.818359 C 11.594018 15.111938 16.534932 12.29715 20.447266 11.988281 C 20.653178 11.953963 20.859378 11.955078 21.099609 11.955078 C 22.16349 11.955078 23.674702 12.160441 26.351562 12.572266 C 29.337291 13.087046 31.155432 13.257812 32.5625 13.257812 C 34.278436 13.257812 35.891198 12.572812 36.955078 11.714844 z " />
</svg>
