<?xml version="1.0" encoding="UTF-8" standalone="no"?>
<svg
   width="64"
   height="64"
   version="1.1"
   viewBox="0 0 64 64"
   id="svg20"
   sodipodi:docname="Papirus-Team-Papirus-Apps-Yad.svg"
   inkscape:version="1.1.2 (0a00cf5339, 2022-02-04)"
   xmlns:inkscape="http://www.inkscape.org/namespaces/inkscape"
   xmlns:sodipodi="http://sodipodi.sourceforge.net/DTD/sodipodi-0.dtd"
   xmlns="http://www.w3.org/2000/svg"
   xmlns:svg="http://www.w3.org/2000/svg">
  <defs
     id="defs24" />
  <sodipodi:namedview
     id="namedview22"
     pagecolor="#ffffff"
     bordercolor="#666666"
     borderopacity="1.0"
     inkscape:pageshadow="2"
     inkscape:pageopacity="0.0"
     inkscape:pagecheckerboard="0"
     showgrid="false"
     inkscape:zoom="10.765625"
     inkscape:cx="15.373004"
     inkscape:cy="32.046444"
     inkscape:window-width="1599"
     inkscape:window-height="831"
     inkscape:window-x="0"
     inkscape:window-y="0"
     inkscape:window-maximized="1"
     inkscape:current-layer="svg20" />
  <path
     id="rect4"
     style="fill:#75ac31;fill-opacity:1"
     d="M 25.332031 4 C 25.239721 4 25.151385 4.011334 25.064453 4.03125 C 24.978111 4.051031 24.893759 4.0797068 24.814453 4.1171875 C 24.813912 4.1174434 24.813041 4.1169308 24.8125 4.1171875 C 24.733184 4.1548129 24.658419 4.2024631 24.587891 4.2558594 C 24.587467 4.2561803 24.586361 4.2555379 24.585938 4.2558594 C 24.515405 4.3093915 24.450611 4.3701305 24.390625 4.4375 C 24.330024 4.5055605 24.274623 4.5799738 24.226562 4.6601562 C 24.13093 4.819707 24.062741 5.0016211 24.027344 5.1972656 C 24.009645 5.2950879 24 5.396125 24 5.5 C 24 5.5881594 24.00864 5.673905 24.021484 5.7578125 C 24.129712 6.4648262 24.671894 7 25.332031 7 L 26 7 L 26 20.945312 A 20 20 0 0 0 25.939453 20.96875 A 20 20 0 0 0 23.386719 21.974609 A 20 20 0 0 0 20.943359 23.359375 A 20 20 0 0 0 18.716797 25.072266 A 20 20 0 0 0 15.091797 29.34375 A 20 20 0 0 0 12.791016 34.451172 A 20 20 0 0 0 12.763672 34.583984 A 20 20 0 0 0 12 40 A 20 20 0 0 0 12.019531 40.398438 A 20 20 0 0 1 12.025391 40.345703 A 20 20 0 0 0 32 60 A 20 20 0 0 0 51.966797 40.457031 A 20 20 0 0 1 51.978516 40.582031 A 20 20 0 0 0 52 40 A 20 20 0 0 0 51.806641 37.255859 A 20 20 0 0 0 51.794922 37.158203 A 20 20 0 0 0 51.226562 34.513672 A 20 20 0 0 0 51.197266 34.402344 A 20 20 0 0 0 50.265625 31.865234 A 20 20 0 0 0 50.21875 31.761719 A 20 20 0 0 0 48.939453 29.378906 A 20 20 0 0 0 48.880859 29.287109 A 20 20 0 0 0 47.271484 27.09375 A 20 20 0 0 0 47.222656 27.035156 A 20 20 0 0 0 45.289062 25.058594 A 20 20 0 0 0 45.287109 25.056641 A 20 20 0 0 0 45.285156 25.054688 A 20 20 0 0 0 38 20.925781 L 38 7 L 38.667969 7 C 39.328106 7 39.870288 6.4648262 39.978516 5.7578125 C 39.99136 5.673905 40 5.5881594 40 5.5 C 40 5.396125 39.990355 5.2950879 39.972656 5.1972656 C 39.937259 5.0016211 39.86907 4.819707 39.773438 4.6601562 C 39.725377 4.5799738 39.669976 4.5055605 39.609375 4.4375 C 39.549389 4.3701305 39.484595 4.3093915 39.414062 4.2558594 C 39.413639 4.2555379 39.412533 4.2561803 39.412109 4.2558594 C 39.341581 4.2024631 39.266816 4.1548129 39.1875 4.1171875 C 39.186959 4.1169308 39.186088 4.1174434 39.185547 4.1171875 C 39.106241 4.0797068 39.021889 4.051031 38.935547 4.03125 C 38.848615 4.011334 38.760279 4 38.667969 4 L 25.332031 4 z M 19.371094 34 L 44.632812 34 A 14 14 0 0 1 46 40 A 14 14 0 0 1 32 54 A 14 14 0 0 1 18 40 A 14 14 0 0 1 19.371094 34 z " />
</svg>
